<svg id="Capa_1" data-name="Capa 1" xmlns="http://www.w3.org/2000/svg" viewBox="0 0 72 72"><defs><style>.cls-1{fill:#505050;}</style></defs><title>documentos</title><path class="cls-1" d="M70.53,0H1.47A1.47,1.47,0,0,0,0,1.47V70.53A1.47,1.47,0,0,0,1.47,72H60.18a1.47,1.47,0,1,0,0-2.93H2.93V2.93H69.07v67.6a1.47,1.47,0,0,0,2.93,0V1.47A1.47,1.47,0,0,0,70.53,0Z"/><path class="cls-1" d="M16.07,15.24a5.62,5.62,0,1,0,5.62,5.62A5.62,5.62,0,0,0,16.07,15.24Zm0,8.3a2.69,2.69,0,1,1,2.69-2.69A2.69,2.69,0,0,1,16.07,23.55Z"/><path class="cls-1" d="M60.27,19.39H26.08a1.47,1.47,0,0,0,0,2.93H60.27A1.47,1.47,0,0,0,60.27,19.39Z"/><path class="cls-1" d="M16.07,30.38a1.47,1.47,0,1,0,0,2.93A2.69,2.69,0,1,1,13.39,36a1.47,1.47,0,0,0-2.93,0A5.62,5.62,0,1,0,16.07,30.38Z"/><path class="cls-1" d="M60.27,34.53H26.08a1.47,1.47,0,0,0,0,2.93H60.27A1.47,1.47,0,0,0,60.27,34.53Z"/><path class="cls-1" d="M16.07,45.52a5.62,5.62,0,1,0,5.62,5.62A5.62,5.62,0,0,0,16.07,45.52Zm0,8.3a2.69,2.69,0,1,1,2.69-2.69A2.69,2.69,0,0,1,16.07,53.83Z"/><path class="cls-1" d="M60.27,49.68H26.08a1.47,1.47,0,0,0,0,2.93H60.27A1.47,1.47,0,0,0,60.27,49.68Z"/></svg>