<svg id="Modo_de_aislamiento" data-name="Modo de aislamiento" xmlns="http://www.w3.org/2000/svg" viewBox="0 0 72 64.55"><defs><style>.cls-1{fill:#009ddc;}</style></defs><title>educacion</title><path class="cls-1" d="M70.75,9H1.24a1.24,1.24,0,1,0,0,2.48H2.48V54.91a1.24,1.24,0,0,0,1.24,1.24h31V66.31a3.72,3.72,0,1,0,2.48,0V56.15h31a1.24,1.24,0,0,0,1.24-1.24V11.46h1.24A1.24,1.24,0,1,0,70.75,9ZM36,71a1.24,1.24,0,1,1,1.24-1.24A1.24,1.24,0,0,1,36,71ZM67,53.66H5V11.46H67V53.66Z" transform="translate(0 -8.97)"/><path class="cls-1" d="M54.85,25.62L35.48,15.93a1.62,1.62,0,0,0-1.44,0L14.65,25.62a1.61,1.61,0,0,0,0,2.89l8.8,4.4v6.27a1.63,1.63,0,0,0,.17.72c0.12,0.23,3,5.74,11.13,5.74s11-5.5,11.13-5.74a1.61,1.61,0,0,0,.17-0.72V31.91a1.61,1.61,0,0,0-2.34-1.44l-9,4.48-8.94-4.47-0.06,0L19,27.07l15.77-7.88,15.77,7.88-2,1a1.61,1.61,0,0,0,.32,3v4.38a1.39,1.39,0,0,0-.38,2.48L48,41.83a1.34,1.34,0,0,0,2.64,0l-0.53-3.93a1.39,1.39,0,0,0-.38-2.48V31.05A1.65,1.65,0,0,0,50,30.93l4.84-2.42A1.62,1.62,0,0,0,54.85,25.62Zm-28.17,8.9L34,38.2a1.62,1.62,0,0,0,1.44,0l7.35-3.68v4.21c-0.62.92-2.88,3.67-8.07,3.67s-7.47-2.77-8.07-3.67V34.52Z" transform="translate(0 -8.97)"/></svg>