<svg id="Capa_1" data-name="Capa 1" xmlns="http://www.w3.org/2000/svg" viewBox="0 0 59.6 66.1"><defs><style>.cls-1{fill:#fff;}</style></defs><title>preguntas</title><path class="cls-1" d="M59.6,50.6V2.2A2.22,2.22,0,0,0,57.4,0H2.2A2.22,2.22,0,0,0,0,2.2V50.6a2.22,2.22,0,0,0,2.2,2.2h8.9V63.9a2.4,2.4,0,0,0,1.2,2,1.8,1.8,0,0,0,1,.2,2,2,0,0,0,1.3-.4l17.9-13H57.4A2.07,2.07,0,0,0,59.6,50.6Zm-4.4-2.2H31.8a2,2,0,0,0-1.3.4L15.6,59.6v-9a2.22,2.22,0,0,0-2.2-2.2H4.5V4.4H55.2v44Z"/><path class="cls-1" d="M24.7,23.3a2.22,2.22,0,0,0,2.2-2.2c0-2.4,2.6-2.5,2.9-2.5s2.9,0.1,2.9,2.5v2l-3.9,2.1a2.27,2.27,0,0,0-1.2,2v2.4a2.2,2.2,0,0,0,4.4,0V28.5l3.9-2.1a2.27,2.27,0,0,0,1.2-2V21.1c0-4.6-3.7-7-7.3-7s-7.3,2.4-7.3,7A2.1,2.1,0,0,0,24.7,23.3Z"/><path class="cls-1" d="M29.8,34.4c-3.6,0-3.6,5.6,0,5.6S33.4,34.4,29.8,34.4Z"/></svg>